<svg width="16" height="16" viewBox="0 0 16 16" fill="none" xmlns="http://www.w3.org/2000/svg">
<path d="M2 4H3.33333H14" stroke="black" stroke-width="1.33333" stroke-linecap="round" stroke-linejoin="round"/>
<path d="M12.6666 4.00016V13.3335C12.6666 13.6871 12.5262 14.0263 12.2761 14.2763C12.0261 14.5264 11.6869 14.6668 11.3333 14.6668H4.66665C4.31302 14.6668 3.97389 14.5264 3.72384 14.2763C3.47379 14.0263 3.33331 13.6871 3.33331 13.3335V4.00016M5.33331 4.00016V2.66683C5.33331 2.31321 5.47379 1.97407 5.72384 1.72402C5.97389 1.47397 6.31302 1.3335 6.66665 1.3335H9.33331C9.68693 1.3335 10.0261 1.47397 10.2761 1.72402C10.5262 1.97407 10.6666 2.31321 10.6666 2.66683V4.00016" stroke="black" stroke-width="1.33333" stroke-linecap="round" stroke-linejoin="round"/>
<path d="M6.66669 7.3335V11.3335" stroke="black" stroke-width="1.33333" stroke-linecap="round" stroke-linejoin="round"/>
<path d="M9.33331 7.3335V11.3335" stroke="black" stroke-width="1.33333" stroke-linecap="round" stroke-linejoin="round"/>
</svg>
